<svg width="40" height="40" viewBox="0 0 40 40" fill="none" xmlns="http://www.w3.org/2000/svg">
<path d="M20 40C31.0457 40 40 31.0457 40 20C40 8.95431 31.0457 0 20 0C8.95431 0 0 8.95431 0 20C0 31.0457 8.95431 40 20 40Z" fill="#009771"/>
<path fill-rule="evenodd" clip-rule="evenodd" d="M17.6715 8.24604C15.9277 8.62701 14.3824 10.3778 13.4886 12.9853L13.1812 13.8823L11.8058 14.3044C11.0493 14.5367 10.3574 14.7978 10.2683 14.885C10.1306 15.0195 9.34861 20.2655 8.18869 28.8364C8.12658 29.2951 8.14182 29.3369 8.39137 29.3911C8.88091 29.4975 22.5345 31.861 22.5485 31.8418C22.6048 31.7643 23.5184 11.0636 23.4676 11.0163C23.4316 10.9831 23.2491 11.0053 23.0619 11.0658C22.7246 11.1749 22.7191 11.1703 22.3927 10.5232C21.8716 9.48995 21.0589 8.86952 20.2271 8.86952C20.0362 8.86952 19.8096 8.77549 19.6832 8.64389C19.2387 8.18113 18.5719 8.04922 17.6715 8.24604ZM18.8409 9.07352C18.8409 9.12766 18.7444 9.20027 18.6266 9.23499C18.2498 9.34601 17.2529 10.425 16.9154 11.0872C16.7357 11.4398 16.5007 12.0296 16.3934 12.3979L16.1979 13.0675L15.3299 13.3052C14.8525 13.4359 14.3969 13.5653 14.3175 13.5928C14.1249 13.6594 14.6443 12.3138 15.1785 11.3623C15.9752 9.94322 17.262 8.97506 18.3514 8.97506C18.6206 8.97506 18.8409 9.01939 18.8409 9.07352ZM21.0869 10.0568C21.2834 10.2455 21.5477 10.6135 21.6744 10.8747L21.9048 11.3496L21.5831 11.4758C21.406 11.5452 21.1336 11.6317 20.9776 11.668C20.7017 11.7322 20.6917 11.7148 20.6169 11.0375C20.5746 10.6543 20.5096 10.1998 20.4724 10.0273C20.3807 9.60171 20.6254 9.61343 21.0869 10.0568ZM19.6236 10.2882C19.6937 10.546 19.7508 11.041 19.7508 11.388V12.0192L18.6241 12.3439C17.2657 12.7355 17.2108 12.7391 17.3087 12.4313C17.4641 11.9428 17.9274 11.076 18.2298 10.7081C18.5148 10.3613 19.2423 9.81932 19.4225 9.81932C19.4631 9.81932 19.5536 10.0303 19.6236 10.2882ZM23.8455 11.235C23.8455 11.4012 23.6387 15.9353 23.3861 21.3108C23.1334 26.6862 22.9415 31.2531 22.9596 31.4594L22.9924 31.8346L26.7392 31.0822C28.7998 30.6687 30.5039 30.28 30.5259 30.2188C30.5633 30.1149 27.8694 12.9642 27.776 12.7114C27.7515 12.645 27.2559 12.5648 26.6139 12.5232L25.4947 12.4507L24.6701 11.6917C23.8773 10.9619 23.8455 10.9443 23.8455 11.235ZM19.2619 16.3658C19.562 16.4257 19.8668 16.5089 19.9392 16.5506C20.1279 16.6594 19.1481 19.2779 18.9371 19.2293C18.8528 19.2099 18.4786 19.1215 18.1054 19.0326C17.2985 18.8408 16.4134 18.9083 15.9991 19.1935C15.8417 19.3017 15.6665 19.5606 15.6096 19.7688C15.4754 20.2596 15.6661 20.5353 16.5959 21.1947C17.8291 22.0691 18.2633 22.4933 18.6275 23.1796C18.9348 23.7592 18.982 23.9592 18.9782 24.6699C18.9705 26.1248 18.3051 27.2961 17.1422 27.9023C16.6172 28.176 16.3757 28.2311 15.5387 28.2682C14.1131 28.3315 12.9507 27.9816 11.9241 27.1801L11.5844 26.9148L11.9141 25.8955C12.0956 25.335 12.244 24.8579 12.244 24.8356C12.244 24.8132 12.4823 24.947 12.7736 25.133C13.4023 25.5342 14.2802 25.8603 14.7322 25.8603C15.4362 25.8603 15.9728 25.0532 15.6542 24.4732C15.5791 24.3364 15.018 23.7735 14.4072 23.222C13.0615 22.0071 12.8585 21.5911 12.9575 20.2508C13.0988 18.3373 14.4522 16.8906 16.5403 16.421C17.3324 16.2429 18.5245 16.2187 19.2619 16.3658Z" fill="white"/>
</svg>
